<svg xmlns="http://www.w3.org/2000/svg" viewBox="0 0 136.48101 51.472999">
  <rect width="23.529411" height="5" x="85.289368" y="-67.711479" fill="#4266d5" ry="2.4536765" transform="scale(1 -1) rotate(10.4860166)"/>
  <rect width="30" height="5" x="-28.372595" y="-18.814758" fill="#c93d39" ry="2.4536765" transform="rotate(164.7110911)"/>
  <rect width="30" height="5" x="-68.981827" y="-7.9330039" fill="#3b972e" ry="2.4536765" transform="rotate(-172.7400686)"/>
  <rect width="23.529411" height="5" x="16.534218" y="22.031614" fill="#945bb0" ry="2.4536765" transform="rotate(-5.9673717)"/>
  <rect width="50" height="5" x="22.053995" y="-41.835175" fill="#4266d5" ry="2.4536765" transform="scale(1 -1) rotate(10.2435473)"/>
  <rect width="23.529411" height="5" x="114.00492" y="10.650894" fill="#c93d39" ry="2.4536765" transform="rotate(10.8091237)"/>
  <rect width="23.529411" height="5" x="83.703484" y="17.069828" fill="#3b972e" ry="2.4536765" transform="rotate(11.2539437)"/>
  <rect width="30" height="5" x="85.730858" y="42.002956" fill="#945bb0" ry="2.4536765" transform="rotate(-9.5046234)"/>
  <rect width="30" height="5" x="77.96196" y="-9.7622881" fill="#4266d5" ry="2.4536765" transform="scale(1 -1) rotate(-6.3959185)"/>
  <rect width="40" height="5" x="53.56263" y="33.277222" fill="#c93d39" ry="2.4536765" transform="rotate(7.329019)"/>
  <rect width="30" height="5" x="13.361518" y="37.954258" fill="#3b972e" ry="2.4536765" transform="rotate(6.85029)"/>
  <rect width="50" height="5" x="85.553635" y="11.845527" fill="#945bb0" ry="2.4536765" transform="rotate(-3.7899914)"/>
</svg>
